<?xml version="1.0" encoding="UTF-8"?>
<svg xmlns="http://www.w3.org/2000/svg" xmlns:xlink="http://www.w3.org/1999/xlink" width="20pt" height="20pt" viewBox="0 0 20 20" version="1.1">
<g id="surface1">
<path style=" stroke:none;fill-rule:nonzero;fill:rgb(0%,0%,0%);fill-opacity:1;" d="M 19.011719 14.855469 C 16.738281 14.847656 14.46875 14.851562 12.199219 14.851562 L 11.839844 14.851562 C 11.871094 15.3125 11.910156 15.753906 11.929688 16.199219 C 11.953125 16.769531 12.222656 17.171875 12.71875 17.4375 C 12.921875 17.542969 13.117188 17.667969 13.308594 17.789062 C 13.367188 17.824219 13.429688 17.867188 13.46875 17.921875 C 13.578125 18.074219 13.507812 18.214844 13.316406 18.21875 C 13.023438 18.222656 12.730469 18.21875 12.4375 18.21875 C 10.550781 18.21875 8.660156 18.21875 6.773438 18.21875 C 6.664062 18.21875 6.523438 18.253906 6.484375 18.101562 C 6.449219 17.957031 6.550781 17.867188 6.664062 17.796875 C 6.917969 17.648438 7.171875 17.496094 7.421875 17.347656 C 7.804688 17.109375 8.019531 16.765625 8.050781 16.3125 C 8.089844 15.839844 8.125 15.359375 8.160156 14.851562 L 7.914062 14.851562 C 5.585938 14.851562 3.257812 14.851562 0.929688 14.851562 C 0.421875 14.851562 0.199219 14.628906 0.199219 14.117188 C 0.199219 10.511719 0.199219 6.09375 0.199219 2.488281 C 0.199219 2.027344 0.433594 1.785156 0.886719 1.785156 C 6.929688 1.785156 12.96875 1.789062 19.007812 1.78125 C 19.382812 1.78125 19.648438 1.894531 19.796875 2.242188 L 19.796875 14.390625 C 19.648438 14.738281 19.386719 14.859375 19.011719 14.855469 Z M 18.867188 3.125 L 1.128906 3.125 L 1.128906 13.410156 L 18.867188 13.410156 Z M 2.34375 10.402344 C 2.34375 10.175781 2.347656 9.945312 2.34375 9.714844 C 2.34375 9.542969 2.417969 9.453125 2.59375 9.453125 C 2.855469 9.453125 3.117188 9.453125 3.375 9.453125 C 3.550781 9.449219 3.632812 9.542969 3.632812 9.710938 C 3.636719 10.183594 3.636719 10.652344 3.632812 11.125 C 3.632812 11.292969 3.550781 11.382812 3.375 11.378906 C 3.121094 11.378906 2.863281 11.382812 2.609375 11.378906 C 2.421875 11.375 2.347656 11.300781 2.347656 11.109375 C 2.34375 10.875 2.34375 10.636719 2.34375 10.402344 Z M 6.058594 10.078125 C 6.058594 9.746094 6.054688 9.414062 6.058594 9.085938 C 6.058594 8.878906 6.128906 8.8125 6.335938 8.808594 C 6.582031 8.808594 6.828125 8.808594 7.078125 8.808594 C 7.273438 8.8125 7.347656 8.882812 7.347656 9.074219 C 7.351562 9.757812 7.351562 10.4375 7.347656 11.121094 C 7.347656 11.289062 7.265625 11.378906 7.089844 11.378906 C 6.835938 11.375 6.578125 11.378906 6.324219 11.375 C 6.132812 11.375 6.058594 11.296875 6.058594 11.109375 C 6.054688 10.765625 6.058594 10.421875 6.058594 10.078125 Z M 5.484375 9.769531 C 5.484375 10.210938 5.488281 10.648438 5.484375 11.089844 C 5.484375 11.308594 5.421875 11.375 5.203125 11.378906 C 4.960938 11.378906 4.71875 11.378906 4.476562 11.378906 C 4.28125 11.375 4.207031 11.3125 4.203125 11.121094 C 4.199219 10.222656 4.199219 9.324219 4.203125 8.425781 C 4.203125 8.230469 4.277344 8.164062 4.476562 8.164062 C 4.722656 8.160156 4.972656 8.160156 5.222656 8.164062 C 5.414062 8.164062 5.484375 8.238281 5.484375 8.433594 C 5.488281 8.878906 5.484375 9.324219 5.484375 9.769531 Z M 16.945312 6.261719 C 16.140625 6.863281 15.347656 7.460938 14.53125 8.070312 L 14.53125 4.96875 C 15.261719 4.898438 16.519531 5.5625 16.945312 6.261719 Z M 7.917969 9.464844 C 7.917969 8.925781 7.917969 8.382812 7.917969 7.839844 C 7.917969 7.574219 7.980469 7.519531 8.246094 7.515625 C 8.46875 7.515625 8.691406 7.515625 8.914062 7.515625 C 9.121094 7.519531 9.199219 7.589844 9.199219 7.785156 C 9.199219 8.894531 9.199219 10.003906 9.199219 11.113281 C 9.199219 11.304688 9.121094 11.375 8.929688 11.378906 C 8.679688 11.382812 8.429688 11.378906 8.183594 11.378906 C 7.992188 11.375 7.921875 11.304688 7.917969 11.109375 C 7.917969 10.5625 7.921875 10.015625 7.917969 9.464844 Z M 6.6875 7.4375 C 7.285156 6.757812 7.878906 6.085938 8.503906 5.375 C 8.226562 5.375 8.003906 5.371094 7.777344 5.375 C 7.625 5.378906 7.507812 5.339844 7.492188 5.164062 C 7.480469 5.027344 7.59375 4.949219 7.785156 4.949219 C 8.160156 4.949219 8.539062 4.945312 8.914062 4.949219 C 9.132812 4.949219 9.199219 5.011719 9.199219 5.230469 C 9.203125 5.621094 9.199219 6.011719 9.203125 6.398438 C 9.203125 6.546875 9.144531 6.65625 8.988281 6.65625 C 8.835938 6.65625 8.773438 6.550781 8.773438 6.398438 C 8.777344 6.191406 8.773438 5.984375 8.773438 5.722656 C 8.683594 5.824219 8.617188 5.890625 8.558594 5.960938 C 8.019531 6.570312 7.480469 7.1875 6.941406 7.796875 C 6.769531 7.988281 6.695312 7.992188 6.492188 7.832031 C 5.949219 7.398438 5.40625 6.964844 4.851562 6.523438 C 4.800781 6.566406 4.746094 6.609375 4.699219 6.65625 C 4.074219 7.242188 3.453125 7.828125 2.832031 8.414062 C 2.785156 8.457031 2.742188 8.503906 2.691406 8.542969 C 2.589844 8.617188 2.464844 8.617188 2.40625 8.511719 C 2.367188 8.441406 2.386719 8.328125 2.402344 8.238281 C 2.414062 8.191406 2.480469 8.15625 2.523438 8.117188 C 3.21875 7.460938 3.914062 6.804688 4.609375 6.148438 C 4.796875 5.976562 4.851562 5.972656 5.050781 6.132812 C 5.539062 6.523438 6.027344 6.910156 6.515625 7.300781 C 6.570312 7.347656 6.625 7.386719 6.6875 7.4375 Z M 16.285156 10.980469 C 15.753906 10.152344 15.21875 9.324219 14.675781 8.484375 C 15.519531 7.855469 16.347656 7.234375 17.175781 6.613281 C 18.019531 7.875 17.761719 9.949219 16.285156 10.980469 Z M 14.097656 5.207031 C 14.097656 5.824219 14.097656 6.429688 14.097656 7.035156 C 14.097656 7.417969 14.089844 7.800781 14.101562 8.183594 C 14.101562 8.28125 14.128906 8.386719 14.183594 8.464844 C 14.65625 9.214844 15.140625 9.957031 15.617188 10.699219 C 15.675781 10.789062 15.734375 10.878906 15.792969 10.96875 C 14.941406 11.511719 13.554688 11.574219 12.484375 10.796875 C 11.394531 10.011719 10.933594 8.625 11.335938 7.355469 C 11.722656 6.128906 12.878906 5.222656 14.097656 5.207031 Z M 14.097656 5.207031 "/>
</g>
</svg>
