<?xml version="1.0" encoding="UTF-8"?>
<svg xmlns="http://www.w3.org/2000/svg" xmlns:xlink="http://www.w3.org/1999/xlink" width="20pt" height="20pt" viewBox="0 0 20 20" version="1.1">
<g id="surface1">
<path style=" stroke:none;fill-rule:nonzero;fill:rgb(0%,0%,0%);fill-opacity:1;" d="M 14.285156 3.570312 L 2.144531 3.570312 C 0.960938 3.570312 0 4.53125 0 5.714844 L 0 17.855469 C 0 19.039062 0.960938 20 2.144531 20 L 14.285156 20 C 15.46875 20 16.429688 19.039062 16.429688 17.855469 L 16.429688 5.714844 C 16.429688 4.53125 15.46875 3.570312 14.285156 3.570312 Z M 15 17.855469 C 15 18.25 14.679688 18.570312 14.285156 18.570312 L 2.144531 18.570312 C 1.75 18.570312 1.429688 18.25 1.429688 17.855469 L 1.429688 5.714844 C 1.429688 5.320312 1.75 5 2.144531 5 L 14.285156 5 C 14.679688 5 15 5.320312 15 5.714844 Z M 15 17.855469 "/>
<path style=" stroke:none;fill-rule:nonzero;fill:rgb(0%,0%,0%);fill-opacity:1;" d="M 17.855469 0 L 5 0 C 3.816406 0 2.855469 0.960938 2.855469 2.144531 C 2.855469 2.539062 3.175781 2.855469 3.570312 2.855469 C 3.964844 2.855469 4.285156 2.539062 4.285156 2.144531 C 4.285156 1.75 4.605469 1.429688 5 1.429688 L 17.855469 1.429688 C 18.25 1.429688 18.570312 1.75 18.570312 2.144531 L 18.570312 15 C 18.570312 15.394531 18.25 15.714844 17.855469 15.714844 C 17.460938 15.714844 17.144531 16.035156 17.144531 16.429688 C 17.144531 16.824219 17.460938 17.144531 17.855469 17.144531 C 19.039062 17.144531 20 16.183594 20 15 L 20 2.144531 C 20 0.960938 19.039062 0 17.855469 0 Z M 17.855469 0 "/>
</g>
</svg>
