<?xml version="1.0" encoding="UTF-8"?>
<svg xmlns="http://www.w3.org/2000/svg" xmlns:xlink="http://www.w3.org/1999/xlink" width="20pt" height="20pt" viewBox="0 0 20 20" version="1.1">
<g id="surface1">
<path style=" stroke:none;fill-rule:nonzero;fill:rgb(0%,0%,0%);fill-opacity:1;" d="M 19.875 8.265625 C 19.804688 8.175781 19.714844 8.121094 19.601562 8.101562 L 17.222656 7.738281 C 17.089844 7.324219 16.914062 6.898438 16.6875 6.464844 C 16.84375 6.246094 17.078125 5.941406 17.390625 5.546875 C 17.703125 5.152344 17.921875 4.863281 18.054688 4.683594 C 18.121094 4.585938 18.15625 4.488281 18.15625 4.382812 C 18.15625 4.261719 18.128906 4.167969 18.066406 4.097656 C 17.753906 3.65625 17.039062 2.917969 15.921875 1.886719 C 15.816406 1.800781 15.707031 1.757812 15.59375 1.757812 C 15.464844 1.757812 15.359375 1.792969 15.28125 1.871094 L 13.4375 3.265625 C 13.082031 3.082031 12.691406 2.921875 12.265625 2.785156 L 11.902344 0.390625 C 11.894531 0.277344 11.84375 0.183594 11.75 0.109375 C 11.660156 0.0351562 11.554688 0 11.433594 0 L 8.546875 0 C 8.292969 0 8.136719 0.121094 8.078125 0.363281 C 7.964844 0.796875 7.839844 1.605469 7.699219 2.785156 C 7.292969 2.914062 6.898438 3.078125 6.515625 3.277344 L 4.722656 1.886719 C 4.609375 1.800781 4.496094 1.757812 4.382812 1.757812 C 4.191406 1.757812 3.78125 2.066406 3.152344 2.6875 C 2.527344 3.304688 2.097656 3.773438 1.871094 4.085938 C 1.796875 4.195312 1.757812 4.296875 1.757812 4.382812 C 1.757812 4.488281 1.800781 4.589844 1.886719 4.695312 C 2.46875 5.398438 2.929688 5.996094 3.277344 6.492188 C 3.0625 6.890625 2.890625 7.289062 2.769531 7.6875 L 0.351562 8.050781 C 0.257812 8.070312 0.171875 8.125 0.105469 8.21875 C 0.0351562 8.316406 0 8.414062 0 8.519531 L 0 11.40625 C 0 11.519531 0.0351562 11.621094 0.105469 11.710938 C 0.171875 11.804688 0.265625 11.859375 0.378906 11.875 L 2.757812 12.226562 C 2.878906 12.652344 3.058594 13.082031 3.289062 13.515625 C 3.136719 13.730469 2.902344 14.035156 2.589844 14.429688 C 2.277344 14.824219 2.054688 15.113281 1.925781 15.296875 C 1.855469 15.390625 1.820312 15.492188 1.820312 15.59375 C 1.820312 15.707031 1.851562 15.808594 1.910156 15.894531 C 2.25 16.363281 2.964844 17.089844 4.058594 18.078125 C 4.152344 18.175781 4.261719 18.222656 4.382812 18.222656 C 4.511719 18.222656 4.621094 18.183594 4.707031 18.105469 L 6.542969 16.714844 C 6.898438 16.894531 7.289062 17.054688 7.714844 17.195312 L 8.078125 19.589844 C 8.085938 19.699219 8.136719 19.792969 8.226562 19.867188 C 8.316406 19.941406 8.425781 19.980469 8.546875 19.980469 L 11.433594 19.980469 C 11.683594 19.980469 11.839844 19.855469 11.902344 19.613281 C 12.015625 19.179688 12.140625 18.375 12.277344 17.195312 C 12.6875 17.066406 13.082031 16.898438 13.460938 16.699219 L 15.257812 18.105469 C 15.378906 18.183594 15.492188 18.222656 15.59375 18.222656 C 15.785156 18.222656 16.195312 17.914062 16.816406 17.300781 C 17.441406 16.683594 17.871094 16.214844 18.105469 15.894531 C 18.183594 15.808594 18.222656 15.707031 18.222656 15.59375 C 18.222656 15.480469 18.179688 15.375 18.09375 15.269531 C 17.46875 14.507812 17.003906 13.910156 16.699219 13.476562 C 16.875 13.152344 17.042969 12.757812 17.207031 12.292969 L 19.613281 11.925781 C 19.71875 11.910156 19.804688 11.855469 19.875 11.757812 C 19.945312 11.664062 19.976562 11.5625 19.976562 11.457031 L 19.976562 8.570312 C 19.980469 8.457031 19.945312 8.355469 19.875 8.265625 Z M 12.34375 12.34375 C 11.695312 12.992188 10.910156 13.320312 9.988281 13.320312 C 9.070312 13.320312 8.285156 12.992188 7.636719 12.34375 C 6.984375 11.691406 6.660156 10.910156 6.660156 9.988281 C 6.660156 9.070312 6.984375 8.285156 7.636719 7.636719 C 8.285156 6.984375 9.070312 6.660156 9.988281 6.660156 C 10.910156 6.660156 11.695312 6.984375 12.34375 7.636719 C 12.992188 8.285156 13.320312 9.070312 13.320312 9.988281 C 13.320312 10.910156 12.992188 11.691406 12.34375 12.34375 Z M 12.34375 12.34375 "/>
</g>
</svg>
