<?xml version="1.0" encoding="UTF-8"?>
<svg xmlns="http://www.w3.org/2000/svg" xmlns:xlink="http://www.w3.org/1999/xlink" width="20pt" height="20pt" viewBox="0 0 20 20" version="1.1">
<g id="surface1">
<path style=" stroke:none;fill-rule:nonzero;fill:rgb(0%,0%,0%);fill-opacity:1;" d="M 19.820312 10.777344 L 15.082031 9.039062 L 15.082031 3.757812 C 15.082031 3.65625 15.015625 3.566406 14.917969 3.53125 L 10.066406 1.753906 C 10.015625 1.738281 9.960938 1.738281 9.910156 1.753906 L 5.066406 3.480469 C 5.019531 3.5 4.976562 3.53125 4.957031 3.5625 C 4.921875 3.605469 4.902344 3.660156 4.902344 3.714844 L 4.902344 9.039062 L 0.167969 10.726562 C 0.117188 10.742188 0.0742188 10.777344 0.0546875 10.808594 C 0.0195312 10.851562 0 10.90625 0 10.960938 L 0 16.332031 C 0 16.429688 0.0664062 16.523438 0.160156 16.554688 L 5.007812 18.226562 C 5.058594 18.242188 5.113281 18.242188 5.164062 18.226562 L 9.988281 16.5625 L 14.804688 18.226562 C 14.855469 18.242188 14.914062 18.242188 14.964844 18.226562 L 19.8125 16.554688 C 19.910156 16.523438 19.980469 16.429688 19.980469 16.324219 L 19.980469 11 C 19.980469 10.898438 19.914062 10.808594 19.820312 10.777344 Z M 14.234375 8.675781 L 10.511719 9.9375 L 10.511719 5.941406 L 14.234375 4.578125 Z M 9.988281 2.621094 L 13.453125 3.914062 L 9.992188 5.195312 L 6.335938 3.933594 Z M 5.09375 12.441406 L 1.4375 11.179688 L 5.089844 9.867188 L 8.550781 11.160156 Z M 9.335938 15.921875 L 5.609375 17.179688 L 5.609375 13.1875 L 9.335938 11.820312 Z M 14.890625 12.441406 L 11.238281 11.179688 L 14.886719 9.867188 L 18.351562 11.160156 Z M 19.136719 15.921875 L 15.410156 17.179688 L 15.410156 13.1875 L 19.136719 11.820312 Z M 19.136719 15.921875 "/>
</g>
</svg>
