<?xml version="1.0" encoding="UTF-8"?>
<svg xmlns="http://www.w3.org/2000/svg" xmlns:xlink="http://www.w3.org/1999/xlink" width="20pt" height="20pt" viewBox="0 0 20 20" version="1.1">
<g id="surface1">
<path style=" stroke:none;fill-rule:nonzero;fill:rgb(0%,0%,0%);fill-opacity:1;" d="M 10.277344 0.0585938 C 10.09375 -0.0195312 9.890625 -0.0195312 9.710938 0.0585938 L 0.929688 3.707031 C 0.683594 3.808594 0.527344 4.046875 0.527344 4.308594 L 0.53125 14.574219 C 0.53125 14.851562 0.6875 15.109375 0.933594 15.234375 L 9.589844 19.621094 C 9.847656 19.75 10.152344 19.75 10.410156 19.621094 L 19.050781 15.234375 C 19.296875 15.109375 19.453125 14.851562 19.453125 14.574219 L 19.472656 4.492188 C 19.472656 4.125 19.253906 3.792969 18.914062 3.652344 Z M 9.992188 1.535156 L 16.925781 4.425781 L 9.992188 7.800781 L 3.058594 4.425781 Z M 17.980469 14.121094 L 10.730469 17.800781 L 10.730469 9.253906 L 17.980469 5.574219 Z M 17.980469 14.121094 "/>
</g>
</svg>
