<?xml version="1.0" encoding="UTF-8"?>
<svg xmlns="http://www.w3.org/2000/svg" xmlns:xlink="http://www.w3.org/1999/xlink" width="20pt" height="20pt" viewBox="0 0 20 20" version="1.1">
<g id="surface1">
<path style=" stroke:none;fill-rule:nonzero;fill:rgb(0%,0%,0%);fill-opacity:1;" d="M 19.472656 0.898438 C 19.117188 0.75 18.8125 0.8125 18.5625 1.078125 L 16.871094 2.757812 C 15.941406 1.882812 14.882812 1.203125 13.691406 0.722656 C 12.496094 0.242188 11.265625 0 9.988281 0 C 8.636719 0 7.34375 0.265625 6.113281 0.792969 C 4.882812 1.324219 3.820312 2.035156 2.925781 2.925781 C 2.035156 3.820312 1.324219 4.882812 0.792969 6.113281 C 0.265625 7.34375 0 8.636719 0 9.988281 C 0 11.34375 0.265625 12.632812 0.792969 13.867188 C 1.324219 15.097656 2.035156 16.160156 2.925781 17.050781 C 3.820312 17.945312 4.882812 18.65625 6.113281 19.183594 C 7.34375 19.714844 8.636719 19.980469 9.988281 19.980469 C 11.480469 19.980469 12.898438 19.664062 14.242188 19.035156 C 15.585938 18.40625 16.730469 17.519531 17.675781 16.375 C 17.746094 16.289062 17.777344 16.191406 17.773438 16.082031 C 17.769531 15.976562 17.730469 15.886719 17.652344 15.816406 L 15.871094 14.023438 C 15.773438 13.945312 15.664062 13.90625 15.542969 13.90625 C 15.40625 13.921875 15.304688 13.972656 15.246094 14.0625 C 14.613281 14.886719 13.835938 15.523438 12.917969 15.972656 C 11.996094 16.425781 11.023438 16.648438 9.988281 16.648438 C 9.089844 16.648438 8.226562 16.472656 7.40625 16.121094 C 6.589844 15.773438 5.878906 15.296875 5.28125 14.699219 C 4.683594 14.101562 4.207031 13.390625 3.855469 12.570312 C 3.507812 11.753906 3.332031 10.890625 3.332031 9.988281 C 3.332031 9.089844 3.507812 8.226562 3.855469 7.40625 C 4.207031 6.589844 4.683594 5.878906 5.28125 5.28125 C 5.878906 4.683594 6.589844 4.207031 7.40625 3.855469 C 8.226562 3.507812 9.089844 3.332031 9.988281 3.332031 C 11.734375 3.332031 13.246094 3.925781 14.53125 5.113281 L 12.734375 6.90625 C 12.464844 7.167969 12.40625 7.464844 12.550781 7.804688 C 12.699219 8.152344 12.957031 8.324219 13.320312 8.324219 L 19.148438 8.324219 C 19.371094 8.324219 19.566406 8.242188 19.730469 8.078125 C 19.898438 7.914062 19.980469 7.71875 19.980469 7.492188 L 19.980469 1.664062 C 19.980469 1.300781 19.808594 1.046875 19.472656 0.898438 Z M 19.472656 0.898438 "/>
</g>
</svg>
