<?xml version="1.0" encoding="UTF-8"?>
<svg xmlns="http://www.w3.org/2000/svg" xmlns:xlink="http://www.w3.org/1999/xlink" width="20pt" height="20pt" viewBox="0 0 20 20" version="1.1">
<g id="surface1">
<path style=" stroke:none;fill-rule:nonzero;fill:rgb(0%,0%,0%);fill-opacity:1;" d="M 19.558594 17.382812 L 15.4375 13.261719 C 16.429688 11.824219 16.925781 10.226562 16.925781 8.464844 C 16.925781 7.316406 16.703125 6.222656 16.257812 5.175781 C 15.8125 4.128906 15.214844 3.226562 14.457031 2.46875 C 13.699219 1.714844 12.796875 1.113281 11.75 0.667969 C 10.707031 0.222656 9.609375 0 8.464844 0 C 7.316406 0 6.222656 0.222656 5.175781 0.667969 C 4.128906 1.113281 3.226562 1.714844 2.46875 2.46875 C 1.714844 3.226562 1.113281 4.128906 0.667969 5.175781 C 0.222656 6.222656 0 7.316406 0 8.464844 C 0 9.609375 0.222656 10.703125 0.667969 11.75 C 1.113281 12.796875 1.714844 13.699219 2.46875 14.457031 C 3.226562 15.214844 4.128906 15.8125 5.175781 16.257812 C 6.222656 16.703125 7.316406 16.925781 8.464844 16.925781 C 10.226562 16.925781 11.824219 16.429688 13.261719 15.433594 L 17.382812 19.546875 C 17.671875 19.851562 18.03125 20.003906 18.464844 20.003906 C 18.882812 20.003906 19.242188 19.851562 19.546875 19.546875 C 19.851562 19.242188 20.003906 18.882812 20.003906 18.464844 C 20.003906 18.039062 19.855469 17.679688 19.558594 17.382812 Z M 12.269531 12.269531 C 11.214844 13.320312 9.945312 13.847656 8.464844 13.847656 C 6.980469 13.847656 5.710938 13.320312 4.660156 12.269531 C 3.605469 11.214844 3.078125 9.945312 3.078125 8.464844 C 3.078125 6.980469 3.605469 5.710938 4.660156 4.660156 C 5.710938 3.605469 6.980469 3.078125 8.464844 3.078125 C 9.945312 3.078125 11.214844 3.605469 12.269531 4.660156 C 13.320312 5.710938 13.847656 6.980469 13.847656 8.464844 C 13.847656 9.945312 13.320312 11.214844 12.269531 12.269531 Z M 12.269531 12.269531 "/>
</g>
</svg>
