<?xml version="1.0" encoding="UTF-8"?>
<svg xmlns="http://www.w3.org/2000/svg" xmlns:xlink="http://www.w3.org/1999/xlink" width="20pt" height="20pt" viewBox="0 0 20 20" version="1.1">
<g id="surface1">
<path style=" stroke:none;fill-rule:nonzero;fill:rgb(0%,0%,0%);fill-opacity:1;" d="M 19.585938 15 L 12.519531 2.011719 C 11.382812 0.101562 8.617188 0.0976562 7.480469 2.011719 L 0.414062 15 C -0.746094 16.949219 0.660156 19.421875 2.933594 19.421875 L 17.066406 19.421875 C 19.335938 19.421875 20.746094 16.953125 19.585938 15 Z M 10 17.078125 C 9.355469 17.078125 8.828125 16.554688 8.828125 15.90625 C 8.828125 15.261719 9.355469 14.734375 10 14.734375 C 10.644531 14.734375 11.171875 15.261719 11.171875 15.90625 C 11.171875 16.554688 10.644531 17.078125 10 17.078125 Z M 11.171875 12.390625 C 11.171875 13.039062 10.644531 13.5625 10 13.5625 C 9.355469 13.5625 8.828125 13.039062 8.828125 12.390625 L 8.828125 6.53125 C 8.828125 5.886719 9.355469 5.359375 10 5.359375 C 10.644531 5.359375 11.171875 5.886719 11.171875 6.53125 Z M 11.171875 12.390625 "/>
</g>
</svg>
