<?xml version="1.0" encoding="UTF-8"?>
<svg xmlns="http://www.w3.org/2000/svg" xmlns:xlink="http://www.w3.org/1999/xlink" width="20pt" height="20pt" viewBox="0 0 20 20" version="1.1">
<g id="surface1">
<path style=" stroke:none;fill-rule:nonzero;fill:rgb(0%,0%,0%);fill-opacity:1;" d="M 10.007812 5.257812 L 2.867188 11.140625 C 2.867188 11.152344 2.867188 11.164062 2.863281 11.179688 C 2.859375 11.195312 2.855469 11.207031 2.855469 11.214844 L 2.855469 17.175781 C 2.855469 17.390625 2.933594 17.578125 3.09375 17.734375 C 3.25 17.890625 3.4375 17.96875 3.652344 17.96875 L 8.417969 17.96875 L 8.417969 13.203125 L 11.59375 13.203125 L 11.59375 17.96875 L 16.363281 17.96875 C 16.578125 17.96875 16.761719 17.890625 16.921875 17.734375 C 17.078125 17.578125 17.15625 17.390625 17.15625 17.175781 L 17.15625 11.214844 C 17.15625 11.183594 17.152344 11.160156 17.144531 11.140625 Z M 10.007812 5.257812 "/>
<path style=" stroke:none;fill-rule:nonzero;fill:rgb(0%,0%,0%);fill-opacity:1;" d="M 19.875 9.800781 L 17.15625 7.542969 L 17.15625 2.476562 C 17.15625 2.363281 17.121094 2.265625 17.042969 2.191406 C 16.96875 2.117188 16.875 2.082031 16.757812 2.082031 L 14.375 2.082031 C 14.261719 2.082031 14.164062 2.117188 14.089844 2.191406 C 14.015625 2.265625 13.980469 2.363281 13.980469 2.476562 L 13.980469 4.898438 L 10.949219 2.367188 C 10.683594 2.152344 10.371094 2.042969 10.007812 2.042969 C 9.644531 2.042969 9.328125 2.152344 9.0625 2.367188 L 0.136719 9.800781 C 0.0546875 9.867188 0.0117188 9.957031 0 10.070312 C -0.0078125 10.179688 0.0234375 10.277344 0.0898438 10.359375 L 0.859375 11.277344 C 0.925781 11.351562 1.011719 11.398438 1.117188 11.414062 C 1.21875 11.425781 1.316406 11.394531 1.417969 11.328125 L 10.007812 4.164062 L 18.597656 11.328125 C 18.664062 11.386719 18.75 11.414062 18.855469 11.414062 L 18.894531 11.414062 C 19 11.398438 19.089844 11.351562 19.15625 11.277344 L 19.925781 10.359375 C 19.992188 10.277344 20.019531 10.179688 20.011719 10.066406 C 20.003906 9.957031 19.957031 9.867188 19.875 9.800781 Z M 19.875 9.800781 "/>
</g>
</svg>
