<?xml version="1.0" encoding="UTF-8"?>
<svg xmlns="http://www.w3.org/2000/svg" xmlns:xlink="http://www.w3.org/1999/xlink" width="20pt" height="20pt" viewBox="0 0 20 20" version="1.1">
<g id="surface1">
<path style=" stroke:none;fill-rule:nonzero;fill:rgb(0%,0%,0%);fill-opacity:1;" d="M 15.960938 11.460938 C 15.960938 11.097656 15.832031 10.777344 15.570312 10.503906 L 8.039062 2.980469 C 7.773438 2.714844 7.414062 2.488281 6.964844 2.300781 C 6.515625 2.117188 6.101562 2.023438 5.730469 2.023438 L 1.347656 2.023438 C 0.984375 2.023438 0.667969 2.15625 0.402344 2.421875 C 0.132812 2.691406 0 3.007812 0 3.371094 L 0 7.753906 C 0 8.125 0.09375 8.535156 0.277344 8.988281 C 0.464844 9.4375 0.691406 9.789062 0.957031 10.050781 L 8.492188 17.59375 C 8.75 17.855469 9.066406 17.984375 9.441406 17.984375 C 9.804688 17.984375 10.125 17.855469 10.398438 17.59375 L 15.570312 12.410156 C 15.832031 12.152344 15.960938 11.835938 15.960938 11.460938 Z M 4.324219 6.347656 C 4.0625 6.609375 3.742188 6.742188 3.371094 6.742188 C 3 6.742188 2.679688 6.609375 2.417969 6.347656 C 2.15625 6.085938 2.023438 5.765625 2.023438 5.394531 C 2.023438 5.023438 2.15625 4.703125 2.417969 4.441406 C 2.679688 4.175781 3 4.046875 3.371094 4.046875 C 3.742188 4.046875 4.0625 4.175781 4.324219 4.441406 C 4.589844 4.703125 4.71875 5.023438 4.71875 5.394531 C 4.71875 5.765625 4.589844 6.085938 4.324219 6.347656 Z M 4.324219 6.347656 "/>
</g>
</svg>
