<?xml version="1.0" encoding="iso-8859-1"?>
<!-- Generator: Adobe Illustrator 16.0.0, SVG Export Plug-In . SVG Version: 6.00 Build 0)  -->
<!DOCTYPE svg PUBLIC "-//W3C//DTD SVG 1.1//EN" "http://www.w3.org/Graphics/SVG/1.1/DTD/svg11.dtd">
<svg version="1.1" id="Capa_1" xmlns="http://www.w3.org/2000/svg" xmlns:xlink="http://www.w3.org/1999/xlink" x="0px" y="0px"
	 width="542.183px" height="542.183px" viewBox="0 0 542.183 542.183" style="enable-background:new 0 0 542.183 542.183;"
	 xml:space="preserve">
	<path d="M432.544,310.636c0-9.897-3.521-18.559-10.564-25.984L217.844,80.8c-7.232-7.238-16.939-13.374-29.121-18.416
		c-12.181-5.043-23.319-7.565-33.407-7.565H36.545c-9.896,0-18.464,3.619-25.694,10.848C3.616,72.9,0,81.466,0,91.365v118.771
		c0,10.088,2.519,21.219,7.564,33.404c5.046,12.185,11.187,21.792,18.417,28.837L230.12,476.799
		c7.043,7.043,15.608,10.564,25.694,10.564c9.898,0,18.562-3.521,25.984-10.564l140.186-140.47
		C429.023,329.284,432.544,320.725,432.544,310.636z M117.204,172.02c-7.139,7.138-15.752,10.709-25.841,10.709
		c-10.085,0-18.698-3.571-25.837-10.709c-7.139-7.139-10.705-15.749-10.705-25.837c0-10.089,3.566-18.702,10.705-25.837
		c7.139-7.139,15.752-10.71,25.837-10.71c10.089,0,18.702,3.571,25.841,10.71c7.135,7.135,10.707,15.749,10.707,25.837
		C127.91,156.271,124.339,164.881,117.204,172.02z"/>
</svg>
