<svg width="42" height="42" viewBox="0 0 42 42" fill="current" xmlns="http://www.w3.org/2000/svg">
  <path d="M6.54645 28.5568C5.55677 29.5464 6.13409 30.6186 6.54645 31.031L13.9691 38.4535C14.9588 39.4432 15.2062 38.8659 15.2062 38.4535V33.5052H25.103V26.0826H15.2062L15.2062 21.1342C15.2062 20.1445 14.3815 20.7218 13.9691 21.1342L6.54645 28.5568Z" fill="#000"/>
  <path d="M26.3401 26.0827V33.5052H30.0514V26.0827H26.3401Z" fill="#000"/>
  <path d="M31.2887 26.0827V33.5052H33.7629C34.7526 33.5052 35 32.6805 35 32.2682V27.3198C35 26.3301 34.1753 26.0827 33.7629 26.0827H31.2887Z" fill="#000"/>
  <path d="M34.4535 14.6456C35.4432 13.656 34.8659 12.5838 34.4535 12.1714L27.0309 4.74885C26.0412 3.75917 25.7938 4.33648 25.7938 4.74885V9.69724L15.897 9.69724L15.897 17.1198L25.7938 17.1198L25.7938 22.0682C25.7938 23.0579 26.6185 22.4806 27.0309 22.0682L34.4535 14.6456Z" fill="#000"/>
  <path d="M14.6597 17.1197L14.6597 9.69714H10.9484L10.9484 17.1197H14.6597Z" fill="#000"/>
  <path d="M9.7113 17.1197L9.7113 9.69714H7.23711C6.24743 9.69714 6.00001 10.5219 6.00001 10.9342L6.00001 15.8826C6.00001 16.8723 6.82474 17.1197 7.23711 17.1197H9.7113Z" fill="#000"/>
</svg>
