<?xml version="1.0" encoding="UTF-8"?>
<svg xmlns="http://www.w3.org/2000/svg" xmlns:xlink="http://www.w3.org/1999/xlink" width="20pt" height="20pt" viewBox="0 0 20 20" version="1.1">
<g id="surface1">
<path style=" stroke:none;fill-rule:nonzero;fill:rgb(0%,0%,0%);fill-opacity:1;" d="M 3.117188 13.597656 C 2.644531 14.070312 2.921875 14.582031 3.117188 14.777344 L 6.652344 18.3125 C 7.125 18.78125 7.242188 18.507812 7.242188 18.3125 L 7.242188 15.953125 L 11.953125 15.953125 L 11.953125 12.421875 L 7.242188 12.421875 L 7.242188 10.0625 C 7.242188 9.59375 6.847656 9.867188 6.652344 10.0625 Z M 3.117188 13.597656 "/>
<path style=" stroke:none;fill-rule:nonzero;fill:rgb(0%,0%,0%);fill-opacity:1;" d="M 12.542969 12.421875 L 12.542969 15.953125 L 14.308594 15.953125 L 14.308594 12.421875 Z M 12.542969 12.421875 "/>
<path style=" stroke:none;fill-rule:nonzero;fill:rgb(0%,0%,0%);fill-opacity:1;" d="M 14.898438 12.421875 L 14.898438 15.953125 L 16.078125 15.953125 C 16.550781 15.953125 16.667969 15.5625 16.667969 15.367188 L 16.667969 13.007812 C 16.667969 12.539062 16.273438 12.421875 16.078125 12.421875 Z M 14.898438 12.421875 "/>
<path style=" stroke:none;fill-rule:nonzero;fill:rgb(0%,0%,0%);fill-opacity:1;" d="M 16.40625 6.972656 C 16.878906 6.503906 16.601562 5.992188 16.40625 5.796875 L 12.871094 2.261719 C 12.402344 1.789062 12.28125 2.066406 12.28125 2.261719 L 12.28125 4.617188 L 7.570312 4.617188 L 7.570312 8.152344 L 12.28125 8.152344 L 12.28125 10.507812 C 12.28125 10.980469 12.675781 10.703125 12.871094 10.507812 Z M 16.40625 6.972656 "/>
<path style=" stroke:none;fill-rule:nonzero;fill:rgb(0%,0%,0%);fill-opacity:1;" d="M 6.980469 8.152344 L 6.980469 4.617188 L 5.214844 4.617188 L 5.214844 8.152344 Z M 6.980469 8.152344 "/>
<path style=" stroke:none;fill-rule:nonzero;fill:rgb(0%,0%,0%);fill-opacity:1;" d="M 4.625 8.152344 L 4.625 4.617188 L 3.445312 4.617188 C 2.976562 4.617188 2.855469 5.011719 2.855469 5.207031 L 2.855469 7.5625 C 2.855469 8.035156 3.25 8.152344 3.445312 8.152344 Z M 4.625 8.152344 "/>
</g>
</svg>
