<?xml version="1.0" encoding="utf-8"?>
<!-- Svg Vector Icons : http://www.onlinewebfonts.com/icon -->
<!DOCTYPE svg PUBLIC "-//W3C//DTD SVG 1.1//EN" "http://www.w3.org/Graphics/SVG/1.1/DTD/svg11.dtd">
<svg version="1.1" xmlns="http://www.w3.org/2000/svg" xmlns:xlink="http://www.w3.org/1999/xlink" x="0px" y="0px" viewBox="0 0 1000 1000" enable-background="new 0 0 1000 1000" xml:space="preserve">
<metadata> Svg Vector Icons : http://www.onlinewebfonts.com/icon </metadata>
<g><g transform="translate(0.000000,511.000000) scale(0.100000,-0.100000)"><path d="M833.1,4474.1c-34.4-19.1-76.6-59.3-95.7-90c-32.5-49.8-34.4-176.1-40.2-2480.6c-1.9-1573.4,1.9-2453.8,15.3-2499.8c9.6-38.3,45.9-95.7,76.6-126.3l59.3-57.4l1764.8-9.6l1764.8-9.6l5.7-269.9l5.7-269.9l-90-13.4c-49.8-5.7-156.9-11.5-239.3-11.5c-371.3,0-1142.7-70.8-1460.4-135.9c-361.8-72.8-411.5-149.3-147.4-227.8c788.6-231.6,3895.1-254.6,4965.1-36.4c679.5,137.8,260.3,294.8-1016.4,380.9c-162.7,9.6-363.7,19.1-449.8,19.1s-189.5,5.7-227.8,11.5l-72.7,13.4v273.7v275.6h1747.5c1697.8,0,1747.5,1.9,1806.9,38.3c128.3,78.5,120.6-105.3,120.6,2603.1c0,2719.9,7.7,2540-124.4,2622.3c-61.3,38.3-84.2,38.3-4184.1,38.3C965.2,4512.3,892.4,4512.3,833.1,4474.1z M8770.7,2119.8V148.3H5019.1H1267.6v1971.5v1971.5h3751.6h3751.6V2119.8z M5053.6-190.5c-5.7-153.1-9.6-168.4-44-168.4c-34.4,0-38.3,15.3-44,141.7c-5.7,166.5,0,193.3,53.6,193.3C5057.4-24,5059.3-33.6,5053.6-190.5z M4892.8-255.6c-53.6-59.3-44-166.5,19.1-220.1c59.3-53.6,107.2-57.4,181.8-17.2c82.3,42.1,107.2,155,49.8,231.6c-15.3,19.1-26.8,57.4-26.8,84.2c0,45.9,1.9,45.9,65.1-23c55.5-61.3,67-86.1,67-158.9c0-254.6-354.1-325.4-451.7-91.9c-40.2,93.8-19.1,187.6,55.5,262.2c61.3,59.3,61.3,59.3,67,15.3C4923.4-198.2,4912-236.4,4892.8-255.6z"/><path d="M1690.6,3006v-742.7l44,124.4c109.1,308.2,285.2,580,530.2,811.6c246.9,235.4,543.6,405.8,869,501.5c57.4,15.3,105.3,32.5,105.3,38.3c0,3.8-348.4,7.7-775.2,7.7h-775.2L1690.6,3006z"/><path d="M4540.6-2675v-390.5l-585.7-5.7l-585.7-5.7l-45.9-53.6l-45.9-53.6v-497.7v-499.6l55.5-55.5l55.5-55.5H5000h1611.6l55.5,55.5l55.5,55.5v491.9c0,300.5-7.7,505.3-19.1,528.3c-47.9,86.1-97.6,93.8-689.1,93.8h-555.1v392.4v392.4H5000h-459.4V-2675z"/><path d="M100-3708.6V-3967h1416.4h1416.4v258.4v258.4H1516.4H100V-3708.6z"/><path d="M7067.2-3708.6V-3967h1416.4H9900v258.4v258.4H8483.6H7067.2V-3708.6z"/></g></g>
</svg>