<?xml version="1.0" encoding="UTF-8"?>
<svg xmlns="http://www.w3.org/2000/svg" xmlns:xlink="http://www.w3.org/1999/xlink" width="20pt" height="20pt" viewBox="0 0 20 20" version="1.1">
<g id="surface1">
<path style=" stroke:none;fill-rule:nonzero;fill:rgb(0%,0%,0%);fill-opacity:1;" d="M 19.6875 9.410156 C 19.667969 9.394531 19.644531 9.382812 19.625 9.371094 L 18.203125 8.605469 L 10.335938 12.773438 C 10.125 12.886719 9.875 12.886719 9.664062 12.773438 L 1.796875 8.605469 L 0.375 9.371094 C 0.03125 9.554688 -0.101562 9.984375 0.0820312 10.328125 C 0.09375 10.347656 0.105469 10.371094 0.121094 10.390625 L 10 15.621094 L 19.878906 10.390625 C 20.097656 10.066406 20.011719 9.625 19.6875 9.410156 Z M 19.6875 9.410156 "/>
<path style=" stroke:none;fill-rule:nonzero;fill:rgb(0%,0%,0%);fill-opacity:1;" d="M 19.914062 13.945312 C 19.847656 13.824219 19.746094 13.722656 19.625 13.65625 L 18.203125 12.894531 L 10.335938 17.058594 C 10.125 17.171875 9.875 17.171875 9.664062 17.058594 L 1.796875 12.894531 L 0.375 13.65625 C 0.0273438 13.84375 -0.101562 14.277344 0.0859375 14.625 C 0.152344 14.746094 0.253906 14.847656 0.375 14.914062 L 9.660156 19.914062 C 9.871094 20.027344 10.128906 20.027344 10.339844 19.914062 L 19.625 14.914062 C 19.972656 14.726562 20.101562 14.292969 19.914062 13.945312 Z M 19.914062 13.945312 "/>
<path style=" stroke:none;fill-rule:nonzero;fill:rgb(0%,0%,0%);fill-opacity:1;" d="M 19.6875 5.125 C 19.667969 5.109375 19.644531 5.097656 19.625 5.085938 L 10.339844 0.0859375 C 10.128906 -0.0273438 9.871094 -0.0273438 9.660156 0.0859375 L 0.375 5.085938 C 0.03125 5.269531 -0.101562 5.695312 0.0820312 6.042969 C 0.09375 6.0625 0.105469 6.085938 0.121094 6.105469 L 10 11.335938 L 19.878906 6.105469 C 20.097656 5.78125 20.011719 5.339844 19.6875 5.125 Z M 19.6875 5.125 "/>
</g>
</svg>
