<?xml version="1.0" encoding="UTF-8"?>
<svg xmlns="http://www.w3.org/2000/svg" xmlns:xlink="http://www.w3.org/1999/xlink" width="20pt" height="20pt" viewBox="0 0 20 20" version="1.1">
<g id="surface1">
<path style=" stroke:none;fill-rule:nonzero;fill:rgb(0%,0%,0%);fill-opacity:1;" d="M 1.667969 1.273438 C 1.597656 1.308594 1.511719 1.390625 1.476562 1.453125 C 1.410156 1.550781 1.40625 1.804688 1.394531 6.414062 C 1.390625 9.558594 1.398438 11.320312 1.425781 11.414062 C 1.445312 11.488281 1.515625 11.605469 1.578125 11.664062 L 1.695312 11.78125 L 8.757812 11.820312 L 8.765625 12.359375 L 8.777344 12.898438 L 8.597656 12.925781 C 8.5 12.9375 8.285156 12.949219 8.121094 12.949219 C 7.378906 12.949219 5.835938 13.089844 5.199219 13.21875 C 4.476562 13.363281 4.375 13.519531 4.90625 13.675781 C 6.480469 14.136719 12.695312 14.183594 14.835938 13.746094 C 16.195312 13.472656 15.355469 13.160156 12.800781 12.984375 C 12.476562 12.96875 12.074219 12.949219 11.902344 12.949219 C 11.730469 12.949219 11.523438 12.9375 11.445312 12.925781 L 11.300781 12.898438 L 11.300781 11.800781 L 14.796875 11.800781 C 18.191406 11.800781 18.292969 11.796875 18.410156 11.722656 C 18.667969 11.566406 18.652344 11.933594 18.652344 6.515625 C 18.652344 1.078125 18.667969 1.4375 18.402344 1.273438 C 18.28125 1.195312 18.234375 1.195312 10.035156 1.195312 C 1.929688 1.195312 1.785156 1.195312 1.667969 1.273438 Z M 17.542969 5.980469 L 17.542969 9.921875 L 2.535156 9.921875 L 2.535156 2.039062 L 17.542969 2.039062 Z M 10.105469 10.601562 C 10.097656 10.90625 10.089844 10.9375 10.019531 10.9375 C 9.949219 10.9375 9.941406 10.90625 9.929688 10.65625 C 9.917969 10.320312 9.929688 10.269531 10.039062 10.269531 C 10.113281 10.269531 10.117188 10.289062 10.105469 10.601562 Z M 9.785156 10.730469 C 9.679688 10.851562 9.699219 11.0625 9.824219 11.171875 C 9.941406 11.277344 10.039062 11.285156 10.1875 11.207031 C 10.351562 11.121094 10.402344 10.894531 10.285156 10.742188 C 10.257812 10.703125 10.234375 10.628906 10.234375 10.574219 C 10.234375 10.480469 10.238281 10.480469 10.363281 10.621094 C 10.472656 10.742188 10.496094 10.792969 10.496094 10.9375 C 10.496094 11.445312 9.789062 11.589844 9.59375 11.121094 C 9.515625 10.933594 9.554688 10.746094 9.707031 10.597656 C 9.828125 10.480469 9.828125 10.480469 9.839844 10.566406 C 9.847656 10.617188 9.824219 10.691406 9.785156 10.730469 Z M 9.785156 10.730469 "/>
<path style=" stroke:none;fill-rule:nonzero;fill:rgb(0%,0%,0%);fill-opacity:1;" d="M 3.382812 4.207031 L 3.382812 5.695312 L 3.46875 5.445312 C 3.6875 4.828125 4.039062 4.285156 4.53125 3.820312 C 5.023438 3.351562 5.617188 3.011719 6.269531 2.820312 C 6.382812 2.789062 6.476562 2.753906 6.476562 2.742188 C 6.476562 2.734375 5.78125 2.726562 4.929688 2.726562 L 3.378906 2.726562 Z M 3.382812 4.207031 "/>
<path style=" stroke:none;fill-rule:nonzero;fill:rgb(0%,0%,0%);fill-opacity:1;" d="M 9.082031 15.570312 L 9.082031 16.351562 L 6.738281 16.375 L 6.648438 16.480469 L 6.554688 16.589844 L 6.554688 18.582031 L 6.664062 18.695312 L 6.777344 18.804688 L 13.222656 18.804688 L 13.335938 18.695312 L 13.445312 18.582031 L 13.445312 17.597656 C 13.445312 16.996094 13.429688 16.589844 13.40625 16.542969 C 13.3125 16.371094 13.210938 16.355469 12.027344 16.355469 L 10.917969 16.355469 L 10.917969 14.785156 L 9.082031 14.785156 Z M 9.082031 15.570312 "/>
<path style=" stroke:none;fill-rule:nonzero;fill:rgb(0%,0%,0%);fill-opacity:1;" d="M 0.199219 17.636719 L 0.199219 18.152344 L 5.867188 18.152344 L 5.867188 17.121094 L 0.199219 17.121094 Z M 0.199219 17.636719 "/>
<path style=" stroke:none;fill-rule:nonzero;fill:rgb(0%,0%,0%);fill-opacity:1;" d="M 14.132812 17.636719 L 14.132812 18.152344 L 19.800781 18.152344 L 19.800781 17.121094 L 14.132812 17.121094 Z M 14.132812 17.636719 "/>
</g>
</svg>
