<?xml version="1.0" encoding="UTF-8"?>
<svg xmlns="http://www.w3.org/2000/svg" xmlns:xlink="http://www.w3.org/1999/xlink" width="20pt" height="20pt" viewBox="0 0 20 20" version="1.1">
<g id="surface1">
<path style=" stroke:none;fill-rule:nonzero;fill:rgb(0%,0%,0%);fill-opacity:1;" d="M 19.601562 7.671875 C 19.335938 7.40625 19.015625 7.273438 18.636719 7.273438 L 12.726562 7.273438 L 12.726562 1.363281 C 12.726562 0.984375 12.59375 0.664062 12.328125 0.398438 C 12.0625 0.132812 11.742188 0 11.363281 0 L 8.636719 0 C 8.257812 0 7.933594 0.132812 7.671875 0.398438 C 7.40625 0.664062 7.273438 0.984375 7.273438 1.363281 L 7.273438 7.273438 L 1.363281 7.273438 C 0.984375 7.273438 0.664062 7.40625 0.398438 7.671875 C 0.132812 7.9375 0 8.257812 0 8.636719 L 0 11.363281 C 0 11.742188 0.132812 12.0625 0.398438 12.328125 C 0.664062 12.59375 0.984375 12.726562 1.363281 12.726562 L 7.273438 12.726562 L 7.273438 18.636719 C 7.273438 19.015625 7.40625 19.335938 7.671875 19.601562 C 7.933594 19.867188 8.257812 20 8.636719 20 L 11.363281 20 C 11.742188 20 12.0625 19.867188 12.328125 19.601562 C 12.59375 19.335938 12.726562 19.015625 12.726562 18.636719 L 12.726562 12.726562 L 18.636719 12.726562 C 19.015625 12.726562 19.335938 12.59375 19.601562 12.328125 C 19.867188 12.0625 20 11.742188 20 11.363281 L 20 8.636719 C 20 8.257812 19.867188 7.933594 19.601562 7.671875 Z M 19.601562 7.671875 "/>
</g>
</svg>
