<?xml version="1.0" encoding="UTF-8"?>
<svg xmlns="http://www.w3.org/2000/svg" xmlns:xlink="http://www.w3.org/1999/xlink" width="20pt" height="20pt" viewBox="0 0 20 20" version="1.1">
<g id="surface1">
<path style=" stroke:none;fill-rule:nonzero;fill:rgb(0%,0%,0%);fill-opacity:1;" d="M 19.027344 3.445312 C 18.949219 3.367188 18.851562 3.328125 18.730469 3.328125 L 14.710938 3.328125 L 13.800781 1.15625 C 13.671875 0.835938 13.4375 0.5625 13.097656 0.339844 C 12.761719 0.113281 12.417969 0 12.070312 0 L 7.90625 0 C 7.5625 0 7.21875 0.113281 6.878906 0.339844 C 6.542969 0.5625 6.308594 0.835938 6.179688 1.15625 L 5.269531 3.328125 L 1.25 3.328125 C 1.128906 3.328125 1.027344 3.367188 0.949219 3.445312 C 0.871094 3.523438 0.832031 3.625 0.832031 3.746094 L 0.832031 4.578125 C 0.832031 4.699219 0.871094 4.800781 0.949219 4.878906 C 1.027344 4.957031 1.128906 4.996094 1.25 4.996094 L 2.496094 4.996094 L 2.496094 17.378906 C 2.496094 18.097656 2.699219 18.710938 3.109375 19.21875 C 3.515625 19.726562 4.007812 19.976562 4.578125 19.976562 L 15.398438 19.976562 C 15.972656 19.976562 16.460938 19.714844 16.871094 19.191406 C 17.277344 18.667969 17.480469 18.042969 17.480469 17.324219 L 17.480469 4.996094 L 18.730469 4.996094 C 18.851562 4.996094 18.949219 4.957031 19.027344 4.878906 C 19.105469 4.800781 19.144531 4.699219 19.144531 4.578125 L 19.144531 3.746094 C 19.144531 3.625 19.105469 3.523438 19.027344 3.445312 Z M 7.714844 1.808594 C 7.773438 1.730469 7.847656 1.683594 7.933594 1.664062 L 12.058594 1.664062 C 12.144531 1.683594 12.21875 1.730469 12.277344 1.808594 L 12.902344 3.328125 L 7.074219 3.328125 Z M 15.816406 17.324219 C 15.816406 17.515625 15.785156 17.691406 15.726562 17.851562 C 15.664062 18.011719 15.601562 18.128906 15.535156 18.203125 C 15.472656 18.277344 15.425781 18.3125 15.398438 18.3125 L 4.578125 18.3125 C 4.550781 18.3125 4.507812 18.277344 4.441406 18.203125 C 4.375 18.128906 4.3125 18.011719 4.253906 17.851562 C 4.191406 17.691406 4.160156 17.515625 4.160156 17.324219 L 4.160156 4.996094 L 15.816406 4.996094 Z M 15.816406 17.324219 "/>
<path style=" stroke:none;fill-rule:nonzero;fill:rgb(0%,0%,0%);fill-opacity:1;" d="M 6.242188 15.816406 L 7.074219 15.816406 C 7.195312 15.816406 7.296875 15.777344 7.375 15.699219 C 7.453125 15.621094 7.492188 15.523438 7.492188 15.398438 L 7.492188 7.90625 C 7.492188 7.785156 7.453125 7.6875 7.375 7.609375 C 7.296875 7.53125 7.195312 7.492188 7.074219 7.492188 L 6.242188 7.492188 C 6.121094 7.492188 6.023438 7.53125 5.945312 7.609375 C 5.867188 7.6875 5.828125 7.785156 5.828125 7.90625 L 5.828125 15.398438 C 5.828125 15.523438 5.867188 15.621094 5.945312 15.699219 C 6.023438 15.777344 6.121094 15.816406 6.242188 15.816406 Z M 6.242188 15.816406 "/>
<path style=" stroke:none;fill-rule:nonzero;fill:rgb(0%,0%,0%);fill-opacity:1;" d="M 9.574219 15.816406 L 10.40625 15.816406 C 10.527344 15.816406 10.625 15.777344 10.703125 15.699219 C 10.78125 15.621094 10.820312 15.523438 10.820312 15.398438 L 10.820312 7.90625 C 10.820312 7.785156 10.78125 7.6875 10.703125 7.609375 C 10.625 7.53125 10.527344 7.492188 10.40625 7.492188 L 9.574219 7.492188 C 9.453125 7.492188 9.351562 7.53125 9.273438 7.609375 C 9.195312 7.6875 9.15625 7.785156 9.15625 7.90625 L 9.15625 15.398438 C 9.15625 15.523438 9.195312 15.621094 9.273438 15.699219 C 9.351562 15.777344 9.453125 15.816406 9.574219 15.816406 Z M 9.574219 15.816406 "/>
<path style=" stroke:none;fill-rule:nonzero;fill:rgb(0%,0%,0%);fill-opacity:1;" d="M 12.902344 15.816406 L 13.734375 15.816406 C 13.855469 15.816406 13.957031 15.777344 14.035156 15.699219 C 14.113281 15.621094 14.152344 15.523438 14.152344 15.398438 L 14.152344 7.90625 C 14.152344 7.785156 14.113281 7.6875 14.035156 7.609375 C 13.957031 7.53125 13.855469 7.492188 13.734375 7.492188 L 12.902344 7.492188 C 12.78125 7.492188 12.683594 7.53125 12.605469 7.609375 C 12.527344 7.6875 12.488281 7.785156 12.488281 7.90625 L 12.488281 15.398438 C 12.488281 15.523438 12.527344 15.621094 12.605469 15.699219 C 12.683594 15.777344 12.78125 15.816406 12.902344 15.816406 Z M 12.902344 15.816406 "/>
</g>
</svg>
